<?xml version="1.0" encoding="UTF-8"?> <svg xmlns="http://www.w3.org/2000/svg" id="Layer_1" data-name="Layer 1" viewBox="0 0 3812.43 575.61"><title>pierce-kwok-logo--w_1</title><path d="M1259.53,214.29q0,35.6-23.76,57.1t-62.28,21.51q-10.56,0-16.81-3.13-5.48-3.72-5.48-8.6a2.63,2.63,0,0,1,.79-1.76,1.16,1.16,0,0,1,1.17-.2q10,2.75,14.86,2.74,24.24,0,39.89-16.23t15.64-44.78q0-29.91-16.42-47.22T1159,156.41q-17.79,0-19.55,3.91-2,4.69-2,29.33v166.6q0,22.68,2,28.94c.52,1.83,4.17,3.32,11,4.5a100.22,100.22,0,0,0,16,1.76c.79,1,1.21,2.93,1.28,5.67s-.36,4.62-1.28,5.67q-40.08-1.95-45.75-2-6.06,0-46.15,2c-.91-1.05-1.33-2.93-1.27-5.67s.49-4.63,1.27-5.67a100.32,100.32,0,0,0,16-1.76c6.77-1.18,10.43-2.67,11-4.5q1.95-6.26,2-28.94v-167q0-22.68-2-28.94c-.52-1.82-4.18-3.32-11-4.49a99.16,99.16,0,0,0-16-1.76c-.78-1-1.2-2.94-1.27-5.67s.36-4.63,1.27-5.67q40.08,2,46.15,2,6.65,0,24.83-.39t30.7-.39a101.35,101.35,0,0,1,40,7.92,74.45,74.45,0,0,1,31,24.34Q1259.53,192.59,1259.53,214.29Z" style="fill:#fff"></path><path d="M1334.23,274.52v81.73q0,22.68,2,28.94c.52,1.83,3.81,3.32,9.87,4.5a81.54,81.54,0,0,0,14.77,1.76q1.17,1.56,1.27,5.67c.06,2.74-.36,4.62-1.27,5.67q-40.1-1.95-41.85-2-6.84,0-13.2.3t-14.57.88c-5.47.39-10,.65-13.68.78-.92-1.05-1.34-2.93-1.27-5.67s.49-4.63,1.27-5.67a81.55,81.55,0,0,0,14.76-1.76c6.06-1.18,9.35-2.67,9.87-4.5q1.58-4.89,2-28.94V283.51c0-10.42-.65-17.21-2-20.33q-1.17-2.94-7.43-4.7a54.51,54.51,0,0,0-10.46-2.05c-2.8-.2-5.31-.29-7.52-.29-.53-.52-.82-2.09-.89-4.7s.23-4.43.89-5.47q33.43-4.5,55.92-16.43c.91,0,1.85.79,2.83,2.35a7.92,7.92,0,0,1,1.47,3.91q-2.74,19.17-2.74,25.81Zm-31.87-90.93a19.84,19.84,0,1,1,13.88,5.67A18.88,18.88,0,0,1,1302.36,183.59Z" style="fill:#fff"></path><path d="M1412.25,304.63q-.78,35.78,17.7,55.43t46,19.65a48.66,48.66,0,0,0,25.52-6.84Q1513,366,1519,359c.13,0,.46.23,1,.68a6.75,6.75,0,0,1,1.47,2.06,6.12,6.12,0,0,1,.68,2.73,14,14,0,0,1-2.35,7,66,66,0,0,1-7.82,10.17,96.64,96.64,0,0,1-11.73,10.56,60.1,60.1,0,0,1-16.91,9,60.93,60.93,0,0,1-20.63,3.52q-34.21,0-56.22-23.17t-22-58.17a95.13,95.13,0,0,1,7.24-36.56,99,99,0,0,1,18.38-29.73,94,94,0,0,1,24.83-19.45q13.69-7.33,26.59-7.33a67.17,67.17,0,0,1,24.06,4.1q10.74,4.11,17,10.07A54.29,54.29,0,0,1,1513,258.09a60.89,60.89,0,0,1,5.67,13.89,47.93,47.93,0,0,1,1.57,11.53q0,9-2.06,13.59a7.71,7.71,0,0,1-7.33,4.79q-8,.58-50.74,1.66T1412.25,304.63Zm2-14.47H1478q8.4,0,9-9a30.12,30.12,0,0,0-1.56-9.78,60,60,0,0,0-5.28-12.13,30.26,30.26,0,0,0-10.17-10.55,27.08,27.08,0,0,0-15-4.31,31.48,31.48,0,0,0-16.82,4.7,37.53,37.53,0,0,0-12,11.44A84.15,84.15,0,0,0,1418.8,274a71.68,71.68,0,0,0-3.91,11.44C1414.17,288.59,1413.94,290.16,1414.21,290.16Z" style="fill:#fff"></path><path d="M1663.7,230.72a32.11,32.11,0,0,1,14.37,3.32q6.75,3.33,9.49,8a33.39,33.39,0,0,1,1.56,10.56q0,9.58-4.5,15t-8.4,5.37a10.87,10.87,0,0,1-4.79-1.07,39.87,39.87,0,0,1-5.68-3.52c-2.28-1.63-3.61-2.57-4-2.84a25.79,25.79,0,0,0-14.47-4.69q-11.35,0-21.32,13.39T1616,296v60.22q0,22.68,2,28.94.78,2.74,13.78,4.5a160.85,160.85,0,0,0,19.85,1.76q1.17,1.56,1.27,5.67c.06,2.74-.36,4.62-1.27,5.67q-40.1-1.95-48.49-2-3.72,0-43.8,2c-.92-1.05-1.34-2.93-1.28-5.67s.49-4.63,1.28-5.67a81.64,81.64,0,0,0,14.76-1.76c6.06-1.18,9.35-2.67,9.87-4.5q1.56-4.89,2-28.94V283.51c0-10.42-.66-17.21-2-20.33q-1.17-2.94-7.43-4.7a54.51,54.51,0,0,0-10.46-2.05c-2.8-.2-5.31-.29-7.53-.29-.52-.52-.81-2.09-.88-4.7s.23-4.43.88-5.47q33.43-4.5,55.93-16.43c.91,0,1.85.79,2.83,2.35a7.92,7.92,0,0,1,1.47,3.91q-.39,2.35-1.57,17.7T1616,271.78a1.25,1.25,0,0,0,.39,1.07.74.74,0,0,0,.69.2.88.88,0,0,0,.48-.49q6.65-14.46,20.34-28.16T1663.7,230.72Z" style="fill:#fff"></path><path d="M1848.59,250.66q0,9.59-4.5,14.18a13.71,13.71,0,0,1-18.19,2.05,65.87,65.87,0,0,1-8.31-6.55A57.5,57.5,0,0,0,1811,255a51.38,51.38,0,0,0-10.85-6,35.77,35.77,0,0,0-11.44-1.47q-16.82,0-30.31,18.09T1745,312.84q0,32.85,17.7,49.47t45.65,16.62q14.09,0,24.74-6.45T1849.76,359c.13,0,.45.23,1,.68a6.91,6.91,0,0,1,1.46,2.06,6,6,0,0,1,.69,2.73,14,14,0,0,1-2.35,7,66.61,66.61,0,0,1-7.82,10.17A97.4,97.4,0,0,1,1831,392.23a63,63,0,0,1-37.55,12.51q-22.87,0-41.25-11.34a77.16,77.16,0,0,1-28.06-29.23,79.45,79.45,0,0,1-9.68-38.42,86.17,86.17,0,0,1,6-31.68,90.08,90.08,0,0,1,15.84-26.59,118.88,118.88,0,0,1,22.19-19.85,101.16,101.16,0,0,1,25.52-12.9,80.32,80.32,0,0,1,25.52-4.4q21.12,0,35.19,9.38a13.68,13.68,0,0,1,2.64,4.79A17.9,17.9,0,0,1,1848.59,250.66Z" style="fill:#fff"></path><path d="M1916,304.63q-.8,35.78,17.69,55.43t46,19.65a48.68,48.68,0,0,0,25.52-6.84q11.43-6.84,17.5-13.88c.13,0,.45.23,1,.68a6.74,6.74,0,0,1,1.46,2.06,6,6,0,0,1,.69,2.73,14,14,0,0,1-2.35,7,66.61,66.61,0,0,1-7.82,10.17A97.4,97.4,0,0,1,2004,392.23a60.16,60.16,0,0,1-16.92,9,60.89,60.89,0,0,1-20.63,3.52q-34.21,0-56.21-23.17t-22-58.17a95.31,95.31,0,0,1,7.23-36.56,99.24,99.24,0,0,1,18.39-29.73,93.81,93.81,0,0,1,24.83-19.45q13.68-7.33,26.59-7.33a67.12,67.12,0,0,1,24,4.1q10.76,4.11,17,10.07a54.1,54.1,0,0,1,10.37,13.59,61.82,61.82,0,0,1,5.67,13.89,47.88,47.88,0,0,1,1.56,11.53q0,9-2,13.59a7.71,7.71,0,0,1-7.33,4.79q-8,.58-50.75,1.66T1916,304.63Zm2-14.47h63.75q8.4,0,9-9a30.12,30.12,0,0,0-1.56-9.78,61.11,61.11,0,0,0-5.28-12.13,30.26,30.26,0,0,0-10.17-10.55,27.09,27.09,0,0,0-15.06-4.31,31.42,31.42,0,0,0-16.81,4.7,37.56,37.56,0,0,0-12,11.44,84.07,84.07,0,0,0-7.23,13.49,71.68,71.68,0,0,0-3.91,11.44C1918,288.59,1917.73,290.16,1918,290.16Z" style="fill:#fff"></path><path d="M2278.56,145.07q26.21,0,41.45,11.44t15.26,32.36a60.56,60.56,0,0,1-4.6,23.66A64.61,64.61,0,0,1,2317,232.77a163.61,163.61,0,0,1-18,16q-8.89,6.75-22,14.77,22.89,38.52,57.88,77.82a219.25,219.25,0,0,0,16-28.45q6.26-13.59,6.25-17.3a5.1,5.1,0,0,0-3.51-5,26.5,26.5,0,0,0-8.71-1.76l-5.37-.3a9.09,9.09,0,0,1-.88-4.78c.06-2,.49-3.43,1.27-4.21h30.89q6.06,0,12.52-.29t15.15-.88q8.7-.58,15.35-.79.78.6.68,5.77c-.06,3.46-.42,5.18-1.07,5.18q-5.08,0-14.47,2.35t-12.52,4.3q-.59.4-5.67,8.9T2366,327a303.06,303.06,0,0,1-20.14,26.49q9,9.39,12.52,13t9.28,8.8a44.12,44.12,0,0,0,9.49,6.94,16.49,16.49,0,0,0,7,1.76q5.47,0,11.93-6.55t8.4-11.44a9.41,9.41,0,0,1,6.07,2.44q2.92,2.44,2.93,4.6c-.66,1.56-1.37,3.06-2.15,4.49a61.5,61.5,0,0,1-4.89,6.94,47.84,47.84,0,0,1-8,8.22,42.75,42.75,0,0,1-11.73,6.16,45.62,45.62,0,0,1-15.84,2.73,34.94,34.94,0,0,1-13.49-2.93,55.43,55.43,0,0,1-12.42-7q-5.37-4.09-9.87-8.21a64.8,64.8,0,0,1-6.84-7l-2.35-2.93a125.59,125.59,0,0,1-33.73,21.21,94.21,94.21,0,0,1-37.45,8.12q-34.6,0-55.24-16.82t-20.62-46.14a59.66,59.66,0,0,1,5.18-24.94,63,63,0,0,1,15.25-20.62,155.58,155.58,0,0,1,20.14-15.74,262.69,262.69,0,0,1,24.34-13.79q-7.23-12.51-11.14-20a118.15,118.15,0,0,1-7.73-20.53,90.51,90.51,0,0,1-3.81-25.52q0-22.49,16.52-38T2278.56,145.07Zm38.32,219.39q-11.34-11.54-27.37-32.94t-26.4-37.06l-10.36-15.64q-8.61,5.87-12.61,8.8t-10.46,8.7a48.64,48.64,0,0,0-9.39,10.65,63.51,63.51,0,0,0-5.38,12,47.08,47.08,0,0,0-2.44,15.35q0,25.81,16,38.72T2268,386q12.12,0,25.91-5.86A67.09,67.09,0,0,0,2316.88,364.46Zm-36.36-205.31a30.94,30.94,0,0,0-21.91,8.41q-9,8.41-9,21.7,0,25,20.34,61.79a142.94,142.94,0,0,0,21.11-14.37,50.34,50.34,0,0,0,12.62-17.21q5-10.65,5-25.12a40.29,40.29,0,0,0-7.82-24.64Q2293,159.15,2280.52,159.15Z" style="fill:#fff"></path><path d="M2606.47,144.68q5.67,0,45.76-2,1.36,1.56,1.27,6.25t-1.27,6.26a100.32,100.32,0,0,0-16,1.76q-10.17,1.75-11,4.5-2.34,7.42-1.95,28.94v77.82q10.15-6.25,44.19-39.5,22.68-22.48,31.68-32.07t18-21.11q5.47-7.25,5.48-12.13a6.7,6.7,0,0,0-.59-2.83,5.53,5.53,0,0,0-1.76-2.15,16.64,16.64,0,0,0-2.54-1.57,13.68,13.68,0,0,0-3.13-1.07c-1.17-.26-2.25-.46-3.22-.59s-2.12-.23-3.43-.29-2.31-.1-3-.1h-4.2a12,12,0,0,1-1-5.57,19.56,19.56,0,0,1,1-6.55q4.5.2,14,.88t17,1.07q7.53.39,14,.39,10.17,0,24.44-1.07t17.8-1.27q.78,1.76.68,6.94c-.07,3.45-.55,5.18-1.46,5.18L2784,155q-3.14.21-5.67.49a69.4,69.4,0,0,0-6.85,1.27,51.91,51.91,0,0,0-7.92,2.45,56.63,56.63,0,0,0-7.82,4,31.34,31.34,0,0,0-7.33,6.06q-11.92,12.9-24.25,25.52T2704,215.07q-7.82,7.63-23,22.1t-23.17,22.09a2.72,2.72,0,0,0,0,3.13q2.54,2.94,10.95,12.81t11.14,13q2.75,3.14,10.27,11.83t10.65,12.32q3.14,3.63,9.78,11.15T2721,334.94l9.28,10.07q5.67,6.15,9.78,10.36c2.74,2.81,5.7,5.8,8.9,9s6.29,6.22,9.29,9.09a69.63,69.63,0,0,0,18.08,12.32q9.69,4.5,24.54,5.67c.79,1.43,1,3.49.69,6.16a19.67,19.67,0,0,1-1.08,5.18q-43.21,0-55.53-4.3a71.09,71.09,0,0,1-26.59-16.82q-10.76-10.56-88-98.94c-.53-.78-1.7-1.17-3.52-1.17a7.75,7.75,0,0,0-3.52.78v72.74q0,22.68,1.95,28.94.78,2.73,11,4.49a99.16,99.16,0,0,0,16,1.76c.78,1.05,1.2,3.13,1.27,6.26s-.36,5.21-1.27,6.26q-40.09-1.95-45.76-2-6.06,0-46.14,2c-.92-1.05-1.34-3.13-1.28-6.26s.49-5.21,1.28-6.26a99.06,99.06,0,0,0,16-1.76q10.17-1.75,10.95-4.49,2-6.25,2-28.94V190.44q0-22.68-2-28.94-.78-2.75-10.95-4.5a100.22,100.22,0,0,0-16-1.76c-.79-1-1.21-3.13-1.28-6.26s.36-5.21,1.28-6.25Q2600.41,144.68,2606.47,144.68Z" style="fill:#fff"></path><path d="M2834.56,235.41q6.64,0,12.61-.29t13.49-.88q7.53-.59,13-.78a21,21,0,0,1,.48,6.25c-.06,3-.48,4.69-1.27,5.09a64.53,64.53,0,0,0-6.65.39,25.36,25.36,0,0,0-8.31,2.64c-3.06,1.5-4.59,3.48-4.59,6q0,.39,2,5.87,4.11,10.75,40.28,96.2,4.7-11.92,10.76-27.18t9.19-23q3.12-7.71,6.16-15.74t4.3-11.63a19.61,19.61,0,0,0,1.27-4.6q0-2.34-2.93-9.38a66.4,66.4,0,0,0-6.45-12.12q-5.09-7.44-17.21-7.43c-1.05-.52-1.56-2.28-1.56-5.28s.51-5,1.56-6.06q4.89.19,15.64,1.07t19.95.88q1.56,0,40.67-1.95a17.43,17.43,0,0,1,.78,6.06q0,4.09-1.17,5.28-19.56,0-19.56,12.51a25.53,25.53,0,0,0,1,4.3q1,2.94,2.74,8t5.08,13.59q3.33,8.5,6.84,17.4t9.59,24.35q6.06,15.43,11.53,29.72,29.15-72.54,34.22-87.6,2.14-6.25,2.15-9.39a10.33,10.33,0,0,0-2.05-6.55q-2.05-2.64-6.65-3.91c-3.06-.85-5.38-1.4-6.94-1.66s-4.17-.52-7.82-.78c-.78-.66-1.21-2.45-1.27-5.38s.36-4.92,1.27-6q5.48.19,15.15,1.07t18.87.88q6.64,0,11.83-.29c3.45-.2,7.37-.49,11.73-.88s8.51-.65,12.42-.78q.59.58.49,5.37c-.07,3.2-.62,5.18-1.66,6q-5.48,0-14.57,3.32t-12,10.75q-34.41,87-56.7,140.4a9.85,9.85,0,0,1-3.62,4.5q-2.84,2.14-4.59,2.15c-2.61,0-4.18-.53-4.7-1.57l-43.4-113-42.24,107.16c-.26.91-1.5,2.38-3.72,4.39s-4.23,3-6.06,3-3-.53-3.52-1.57q-32.66-81.72-63.35-151-3.72-8.6-21.12-8.6a21,21,0,0,1,0-11.34q5.86.19,12.91.78t12.9.88Q2827.52,235.41,2834.56,235.41Z" style="fill:#fff"></path><path d="M3170.88,229.93q38.13,0,60.91,24t22.78,61.3q0,37.94-23.76,63.55t-59.15,25.61q-38.13,0-61.1-24.34t-23-61.69q0-37.74,23.85-63.06T3170.88,229.93Zm-4.3,12.91q-15.84,0-26.4,10.17a54.68,54.68,0,0,0-14.76,24.83,124.53,124.53,0,0,0,1.85,70.49,76.13,76.13,0,0,0,18.77,30.6q12.72,12.52,29.53,12.52,15.84,0,26.4-10.17a54.7,54.7,0,0,0,14.76-24.74,116.57,116.57,0,0,0,4.2-32.36,117.88,117.88,0,0,0-6.15-37.83,77.82,77.82,0,0,0-18.87-30.9Q3183.19,242.83,3166.58,242.84Z" style="fill:#fff"></path><path d="M3335.71,356.25q0,22.68,2,28.94c.52,1.83,3.81,3.32,9.87,4.5a81.74,81.74,0,0,0,14.77,1.76q1.17,1.56,1.27,5.67c.06,2.74-.36,4.62-1.27,5.67q-40.09-1.95-41.85-2-6.84,0-13.2.3t-14.56.88q-8.22.58-13.69.78c-.91-1.05-1.34-2.93-1.27-5.67s.49-4.63,1.27-5.67a81.55,81.55,0,0,0,14.76-1.76c6.06-1.18,9.35-2.67,9.88-4.5q1.95-6.26,1.95-28.94V183.4q0-15.65-1.95-20.34-2.94-7-23.86-7c-.13,0-.26-.81-.39-2.44a43.42,43.42,0,0,1-.1-5c.07-1.69.36-2.6.88-2.74q27-2.73,55.53-15.64c.91,0,1.86.69,2.84,2a7.18,7.18,0,0,1,1.47,4.21q-4.3,12.51-4.31,34V309.71q7-2.54,32.07-23.85,4.89-4.11,11.34-9.49t10.27-8.4q3.81-3,7.43-6.26a58.69,58.69,0,0,0,5.28-5.18,5.65,5.65,0,0,0,1.66-3.13,3.37,3.37,0,0,0-.78-2.15,6,6,0,0,0-2.35-1.66,30.68,30.68,0,0,0-3.13-1.18,24.55,24.55,0,0,0-3.61-.78c-1.37-.19-2.55-.32-3.52-.39s-2.06-.16-3.23-.29-1.89-.2-2.15-.2q-1.36-2.15-1.08-6.45t1.86-4.89a366.88,366.88,0,0,0,37.54,2,259.1,259.1,0,0,0,34.42-2q1.17,1.76,1.07,6t-1.07,5.38q-5.28,0-15,2.54t-15.15,6.46q-43.23,31.47-63.36,48.49,11.14,11.92,28.06,31t27.57,30.6q10.67,11.54,14.77,15.06a45.08,45.08,0,0,0,17.1,8.31,63.47,63.47,0,0,0,18.87,2.25,12,12,0,0,1,.88,4.4,10,10,0,0,1-.48,5q-5.49,2.35-25.42,2.35a74.43,74.43,0,0,1-29.14-5.67q-13.48-5.67-19-11.54-33.63-36.36-55.92-60.61a6.1,6.1,0,0,0-2.15-1.57,10.18,10.18,0,0,0-2.74-1.56l-1-.39Z" style="fill:#fff"></path><path d="M280.68,354.83q26.19,0,43.2,10.89t17,28.57a46.05,46.05,0,0,1-4.51,20.24,47.81,47.81,0,0,1-12.08,15.82A91.38,91.38,0,0,1,309,441.07a111.21,111.21,0,0,1-16.42,7.31Q297.17,454.5,316,480t24.24,32.66c.68-.79,1.89-2.22,3.65-4.26s3.12-3.62,4.09-4.76l3.82-4.51q2.39-2.81,3.66-4.59c.85-1.19,1.76-2.46,2.72-3.83a28.64,28.64,0,0,0,2.13-3.4,5.3,5.3,0,0,0,.68-2.21,4.84,4.84,0,0,0-3.4-4.76,22.2,22.2,0,0,0-8.25-1.36h-5q-1-1.53-.94-5.95t1.28-4.94l23.13.34q12.58.35,43.55-1,1,.51.93,5.1c-.06,3.07-.59,5.11-1.61,6.13-.12,0-1.37.08-3.75.25s-4.65.37-6.8.6A42,42,0,0,0,393,481a16.3,16.3,0,0,0-5.87,2.81q-2,1.71-9.27,9.78T362,511.4q-8.67,9.78-12.25,13.52l2,2.38c1.36,1.59,2.64,3.1,3.83,4.51s2.78,3.12,4.76,5.1,3.75,3.66,5.28,5a30.18,30.18,0,0,0,4.93,3.57,9.28,9.28,0,0,0,4.34,1.53,11.36,11.36,0,0,0,4.67-1.1,24.08,24.08,0,0,0,4.34-2.47,28.23,28.23,0,0,0,4.08-3.74c1.48-1.59,2.61-2.86,3.4-3.83s1.82-2.26,3.07-3.91,2-2.63,2.21-3a8.13,8.13,0,0,1,4.68,1.79,12.76,12.76,0,0,1,3.82,4.34q-.68,1.88-5.27,8T388.6,556.64a75.83,75.83,0,0,1-15.56,13q-8.85,5.61-16.16,5.61a37.18,37.18,0,0,1-16.08-3.49,44.26,44.26,0,0,1-11.31-7.14,141.73,141.73,0,0,1-10-10.8q-22.8,21.76-58.52,21.77a65.48,65.48,0,0,1-21.51-3.74,72.74,72.74,0,0,1-19.82-10.46A51.11,51.11,0,0,1,205,544.14a48,48,0,0,1-5.62-23,68.47,68.47,0,0,1,10.21-36,66.81,66.81,0,0,1,10.88-12.42,102.89,102.89,0,0,1,11.66-9.44q4.84-3.23,11.82-7.65c1.36-.8,2.38-1.42,3.06-1.87-.46-.69-2-2.81-4.6-6.38a90.22,90.22,0,0,1-5.52-8.25q-1.62-2.9-4.34-8.25a41.79,41.79,0,0,1-3.83-11.14,65,65,0,0,1-1.1-12.25q0-23.13,14.63-37.93T280.68,354.83Zm29.59,187.1q-25.35-34.53-53.75-74.16Q243.59,479,243.6,499.41a57.51,57.51,0,0,0,2.72,17.35,58.16,58.16,0,0,0,8,16.16,39.36,39.36,0,0,0,14.2,12.16,42.43,42.43,0,0,0,20,4.68A32.47,32.47,0,0,0,310.27,541.93ZM286.46,367.08q-8.85,0-14.12,7.91t-5.27,20.32q0,17.87,16.67,40.49,22.11-11.57,22.11-36.06a54.69,54.69,0,0,0-.94-9.78,58.77,58.77,0,0,0-3-10.55,21.81,21.81,0,0,0-6-8.84A13.88,13.88,0,0,0,286.46,367.08Z" style="fill:#4f98d2"></path><path d="M412.25,158.4q0,78.78-52.59,126.37T221.82,332.38q-23.37,0-37.22-6.92-12.12-8.22-12.12-19a5.27,5.27,0,0,1,.43-1.94,5.8,5.8,0,0,1,1.3-2,2.58,2.58,0,0,1,2.6-.43q22.07,6.06,32.89,6.06,53.66,0,88.29-35.93t34.62-99.11q0-66.21-36.35-104.51T189.79,30.3q-39.37,0-43.28,8.65-4.32,10.39-4.32,64.92V472.6q0,50.22,4.32,64.06,1.73,6.06,24.24,10t35.49,3.9q2.59,3.47,2.81,12.55t-2.81,12.55q-88.72-4.32-101.27-4.33-13.43,0-102.14,4.33-3-3.47-2.81-12.55t2.81-12.55q13,0,35.49-3.9t24.23-10q4.32-13.85,4.33-64.06V103q0-50.19-4.33-64-1.72-6.06-24.23-10T2.83,25.1Q.24,21.65,0,12.55T2.83,0Q91.54,4.34,105,4.33q14.7,0,55-.87t67.95-.86q47.16,0,88.5,17.52A165,165,0,0,1,385,74Q412.25,110.35,412.25,158.4Z" style="fill:#4f98d2"></path><path d="M498.52,4.33q12.54,0,101.27-4.33,3,3.47,2.81,13.85T599.79,27.7q-13,0-35.49,3.89t-24.23,10Q534.87,58,535.74,105.6V277.85q22.5-13.85,97.81-87.42,50.21-49.77,70.11-71t39.82-46.74q12.1-16,12.12-26.83a14.91,14.91,0,0,0-1.3-6.28,12.49,12.49,0,0,0-3.9-4.76,36.94,36.94,0,0,0-5.62-3.46A30.3,30.3,0,0,0,737.85,29q-3.9-.87-7.14-1.3c-2.16-.29-4.69-.5-7.57-.65s-5.13-.22-6.71-.22h-9.31C705.68,24.24,705,20.12,705,14.5A43.3,43.3,0,0,1,707.12,0q10,.43,31,2t37.65,2.38q16.65.87,30.94.86,22.5,0,54.1-2.38T900.15,0q1.73,3.9,1.51,15.36t-3.24,11.47l-6.93.44c-4.62.29-8.8.64-12.55,1.08a149.9,149.9,0,0,0-15.15,2.81,115,115,0,0,0-17.53,5.41A124.15,124.15,0,0,0,829,45.44a70.24,70.24,0,0,0-16.23,13.42q-26.4,28.56-53.66,56.48t-44.58,44.79Q697.17,177,663.63,209t-51.29,48.9a6.1,6.1,0,0,0,0,6.93q5.63,6.48,24.24,28.34T661.25,322q6,6.93,22.72,26.19t23.59,27.26q6.91,8,21.64,24.67t22.72,25.32q8,8.67,20.55,22.29t21.64,22.94q9.09,9.31,19.7,19.91t20.55,20.12a154,154,0,0,0,40,27.27q21.42,10,54.31,12.55,2.6,4.77,1.52,13.63t-2.38,11.47q-95.65,0-122.92-9.52a157.47,157.47,0,0,1-58.86-37.22q-23.8-23.37-194.75-219c-1.16-1.73-3.75-2.6-7.79-2.6a17.22,17.22,0,0,0-7.79,1.73V470q0,50.21,4.33,64,1.73,6.08,24.23,10t35.49,3.9q2.6,3.47,2.81,13.85t-2.81,13.85q-88.72-4.32-101.27-4.33-13.42,0-102.14,4.33-3-3.47-2.81-13.85t2.81-13.85q13,0,35.49-3.9t24.24-10q4.32-13.84,4.32-64V105.6q0-50.2-4.32-64-1.74-6.06-24.24-10T396.38,27.7q-2.6-3.46-2.81-13.85T396.38,0Q485.09,4.34,498.52,4.33Z" style="fill:#4f98d2"></path><path d="M3560.22,323.23q0,11.73,1.05,12.61a7.53,7.53,0,0,0,3.9,1.49c1.54.18,4.39.26,8.54.26h10a56.3,56.3,0,0,0,11.3-1.18,24.94,24.94,0,0,0,9.2-3.55q7.17-4.91,11-17.7.27-1.05,2.46-1.05,3.32,0,4.38,1.05c-.53,1.53-1.41,3.95-2.63,7.28s-2.21,6-2.94,8.1-1.49,4.42-2.28,7a54.68,54.68,0,0,0-1.61,6.66q-9,0-28.3-.35t-31.45-.35q-4.29,0-11,.26t-9.9.27a3.81,3.81,0,0,1-.57-2.55A4.66,4.66,0,0,1,3532,339a45.23,45.23,0,0,0,7.18-.78c3-.53,4.67-1.2,4.91-2q.87-2.81.87-13V248.41q0-10.16-.87-13c-.24-.82-1.87-1.49-4.91-2a45.46,45.46,0,0,0-7.18-.79,4.61,4.61,0,0,1-.57-2.54,3.8,3.8,0,0,1,.57-2.54q18,.88,20.67.88,2.55,0,20.5-.88a3.8,3.8,0,0,1,.57,2.54,4.61,4.61,0,0,1-.57,2.54,45.46,45.46,0,0,0-7.18.79c-3,.53-4.67,1.2-4.91,2-.7,2.21-1,6.54-.87,13Z" style="fill:#fff"></path><path d="M3659,323.23q0,11.73,1.05,12.61a7.53,7.53,0,0,0,3.89,1.49c1.55.18,4.4.26,8.55.26h10a56.32,56.32,0,0,0,11.31-1.18,24.88,24.88,0,0,0,9.19-3.55q7.18-4.91,11-17.7c.18-.7,1-1.05,2.45-1.05q3.33,0,4.38,1.05c-.52,1.53-1.4,3.95-2.63,7.28s-2.2,6-2.93,8.1-1.49,4.42-2.28,7a53.14,53.14,0,0,0-1.62,6.66q-9,0-28.29-.35t-31.45-.35q-4.3,0-10.95.26t-9.9.27a3.81,3.81,0,0,1-.57-2.55,4.66,4.66,0,0,1,.57-2.54,45.23,45.23,0,0,0,7.18-.78c3-.53,4.67-1.2,4.91-2q.87-2.81.87-13V248.41q0-10.16-.87-13c-.24-.82-1.87-1.49-4.91-2a45.46,45.46,0,0,0-7.18-.79,4.61,4.61,0,0,1-.57-2.54,3.8,3.8,0,0,1,.57-2.54q18,.88,20.67.88,2.53,0,20.5-.88a3.8,3.8,0,0,1,.57,2.54,4.61,4.61,0,0,1-.57,2.54,45.34,45.34,0,0,0-7.18.79q-4.56.8-4.91,2c-.7,2.21-1,6.54-.87,13Z" style="fill:#fff"></path><path d="M3812.43,259.63q0,15.93-10.65,25.58t-27.9,9.63a17.06,17.06,0,0,1-7.53-1.4c-1.64-1.11-2.45-2.39-2.45-3.86a1,1,0,0,1,.08-.39,1.25,1.25,0,0,1,.27-.39.5.5,0,0,1,.52-.09,28,28,0,0,0,6.66,1.23q10.86,0,17.87-7.27t7-20.07q0-13.4-7.36-21.15t-21.55-7.75q-8,0-8.76,1.75-.88,2.1-.88,13.14v74.64q0,10.15.88,13c.23.82,1.87,1.49,4.9,2a45.33,45.33,0,0,0,7.19.78,4.66,4.66,0,0,1,.57,2.54,3.81,3.81,0,0,1-.57,2.55q-18-.88-20.5-.88-2.71,0-20.67.88a3.7,3.7,0,0,1-.57-2.55,4.58,4.58,0,0,1,.57-2.54,45.23,45.23,0,0,0,7.18-.78q4.56-.79,4.9-2,.89-2.81.88-13V248.41q0-10.16-.88-13-.34-1.23-4.9-2a45.46,45.46,0,0,0-7.18-.79,4.53,4.53,0,0,1-.57-2.54,3.69,3.69,0,0,1,.57-2.54q18,.88,20.67.88c2,0,5.69-.06,11.12-.18s10-.17,13.76-.17a45.33,45.33,0,0,1,17.91,3.55,33.36,33.36,0,0,1,13.89,10.9A27.7,27.7,0,0,1,3812.43,259.63Z" style="fill:#fff"></path></svg> 