<?xml version="1.0" encoding="UTF-8"?> <svg xmlns="http://www.w3.org/2000/svg" id="Layer_1" data-name="Layer 1" viewBox="0 0 926.74 703.53"><title>pierce-kwok-icon--c_1</title><path d="M304.45,312.72q23.08,0,38.08,9.6t15,25.18a40.5,40.5,0,0,1-4,17.84,42.22,42.22,0,0,1-10.64,13.94,81.13,81.13,0,0,1-13.49,9.45,97,97,0,0,1-14.47,6.44q4.05,5.4,20.61,27.88t21.36,28.79l3.23-3.75,3.6-4.2c.84-1,2-2.32,3.37-4s2.47-3,3.22-4.05l2.4-3.37a24.13,24.13,0,0,0,1.87-3,4.67,4.67,0,0,0,.6-1.95,4.26,4.26,0,0,0-3-4.2,19.62,19.62,0,0,0-7.27-1.2h-4.43c-.6-.9-.87-2.64-.82-5.24s.42-4.05,1.12-4.35l20.39.3q11.08.3,38.38-.9c.6.3.87,1.8.82,4.5s-.52,4.5-1.42,5.39l-3.3.23q-3.15.23-6,.53a36.2,36.2,0,0,0-6.22,1.27,14.23,14.23,0,0,0-5.17,2.47q-1.8,1.5-8.17,8.62t-14,15.74q-7.64,8.63-10.79,11.92l1.8,2.1q1.8,2.1,3.37,4t4.2,4.5q2.63,2.63,4.65,4.42a26.68,26.68,0,0,0,4.34,3.15,8.2,8.2,0,0,0,3.83,1.35,10.12,10.12,0,0,0,4.12-1,21.24,21.24,0,0,0,3.82-2.17,25.76,25.76,0,0,0,3.6-3.3q1.95-2.1,3-3.37c.7-.85,1.59-2,2.7-3.45s1.74-2.32,1.94-2.62a7.13,7.13,0,0,1,4.13,1.57,11.27,11.27,0,0,1,3.37,3.82q-.6,1.65-4.65,7.05t-10,11.92a67.14,67.14,0,0,1-13.71,11.47Q378,507,371.61,507a32.8,32.8,0,0,1-14.17-3.07,39.08,39.08,0,0,1-10-6.3,124.87,124.87,0,0,1-8.84-9.52q-20.1,19.2-51.57,19.19a57.53,57.53,0,0,1-19-3.3,63.94,63.94,0,0,1-17.47-9.22,44.91,44.91,0,0,1-12.89-15.21,42.39,42.39,0,0,1-5-20.24,58,58,0,0,1,2.7-17.84,57.21,57.21,0,0,1,6.3-13.86,58.73,58.73,0,0,1,9.59-10.95,91.65,91.65,0,0,1,10.27-8.32q4.28-2.83,10.42-6.74,1.8-1,2.7-1.65-.6-.9-4-5.62a78.91,78.91,0,0,1-4.87-7.27c-1-1.7-2.23-4.13-3.83-7.27a36.86,36.86,0,0,1-3.37-9.82,57.47,57.47,0,0,1-1-10.8q0-20.38,12.89-33.42T304.45,312.72Zm26.08,164.9q-22.33-30.44-47.37-65.36-11.39,9.9-11.39,27.88a51.88,51.88,0,0,0,9.44,29.53,34.53,34.53,0,0,0,12.52,10.72,37.37,37.37,0,0,0,17.61,4.13A28.61,28.61,0,0,0,330.53,477.62Zm-21-154.1q-7.8,0-12.45,7t-4.64,17.91q0,15.74,14.69,35.68,19.49-10.2,19.48-31.78a48.63,48.63,0,0,0-.82-8.62,51.75,51.75,0,0,0-2.62-9.29,19.31,19.31,0,0,0-5.32-7.8A12.26,12.26,0,0,0,309.55,323.52Z" style="fill:#4f98d2"></path><path d="M420.41,139.6q0,69.43-46.35,111.38t-121.48,42q-20.6,0-32.81-6.11-10.68-7.23-10.68-16.78a4.63,4.63,0,0,1,.39-1.72,5,5,0,0,1,1.14-1.71,2.28,2.28,0,0,1,2.29-.38q19.46,5.34,29,5.34,47.28,0,77.81-31.66t30.51-87.35q0-58.35-32-92.11T224.35,26.7q-34.71,0-38.14,7.63-3.83,9.15-3.82,57.21v325q0,44.25,3.82,56.45,1.51,5.34,21.36,8.77t31.28,3.44q2.28,3.06,2.48,11.06t-2.48,11.06q-78.21-3.81-89.26-3.82-11.82,0-90,3.82-2.67-3.06-2.48-11.06t2.48-11.06q11.45,0,31.28-3.44T112.21,473q3.81-12.2,3.82-56.45V90.78q0-44.25-3.82-56.45Q110.68,29,90.85,25.55T59.57,22.12q-2.28-3-2.48-11.06T59.57,0q78.2,3.81,90,3.81,13,0,48.44-.76t59.89-.76a197.71,197.71,0,0,1,78,15.45,145.25,145.25,0,0,1,60.46,47.48Q420.41,97.26,420.41,139.6Z" style="fill:#4f98d2"></path><path d="M496.44,3.81q11.06,0,89.25-3.81,2.67,3.06,2.48,12.2t-2.48,12.21q-11.43,0-31.27,3.43t-21.36,8.78q-4.57,14.49-3.82,56.45V244.88q19.83-12.21,86.21-77,44.24-43.86,61.79-62.56t35.09-41.19Q723,50,723,40.43a13,13,0,0,0-1.15-5.53,10.91,10.91,0,0,0-3.43-4.2,33.24,33.24,0,0,0-5-3.05,27.44,27.44,0,0,0-6.1-2.1q-3.43-.75-6.29-1.14t-6.68-.57c-2.54-.13-4.52-.19-5.91-.19h-8.2q-1.92-3.43-1.91-10.87A37.89,37.89,0,0,1,680.29,0q8.76.39,27.27,1.72t33.19,2.09q14.67.78,27.27.77,19.83,0,47.68-2.1T850.41,0q1.51,3.44,1.33,13.54t-2.86,10.11l-6.1.38q-6.1.39-11.06.95a131.74,131.74,0,0,0-13.35,2.48,100.53,100.53,0,0,0-15.45,4.77,109.87,109.87,0,0,0-15.26,7.82,61.71,61.71,0,0,0-14.3,11.82q-23.28,25.18-47.3,49.78t-39.29,39.48Q671.52,156,642,184.23t-45.19,43.1a5.33,5.33,0,0,0,0,6.1q4.95,5.73,21.36,25t21.74,25.36q5.34,6.11,20,23.08l20.79,24q6.09,7.07,19.07,21.74t20,22.31q7.05,7.63,18.11,19.65T757,414.8q8,8.2,17.35,17.55t18.12,17.74a135.62,135.62,0,0,0,35.28,24q18.88,8.78,47.87,11.06,2.29,4.2,1.34,12c-.64,5.22-1.34,8.58-2.1,10.11q-84.3,0-108.33-8.39a138.64,138.64,0,0,1-51.87-32.8q-21-20.61-171.65-193c-1-1.52-3.3-2.29-6.86-2.29a15.25,15.25,0,0,0-6.87,1.53V414.23q0,44.25,3.82,56.45,1.52,5.35,21.36,8.78t31.27,3.43q2.29,3.06,2.48,12.2c.13,6.11-.7,10.17-2.48,12.21q-78.2-3.81-89.25-3.82-11.83,0-90,3.82c-1.78-2-2.61-6.1-2.48-12.21s1-10.16,2.48-12.2q11.44,0,31.28-3.43t21.36-8.78q3.81-12.19,3.81-56.45V93.07q0-44.25-3.81-56.45-1.53-5.34-21.36-8.78t-31.28-3.43q-2.28-3-2.48-12.21T406.42,0Q484.62,3.81,496.44,3.81Z" style="fill:#4f98d2"></path><path d="M63,638.69q0,12-8,19.32t-21.07,7.28a12.78,12.78,0,0,1-5.69-1.06,3.54,3.54,0,0,1-1.85-2.91.89.89,0,0,1,.06-.3,1,1,0,0,1,.2-.3.41.41,0,0,1,.4-.06,20.93,20.93,0,0,0,5,.92,17.94,17.94,0,0,0,13.5-5.49q5.3-5.49,5.29-15.15,0-10.11-5.55-16T29,619.11c-4,0-6.22.44-6.61,1.32q-.67,1.59-.67,9.93v56.36q0,7.68.67,9.79c.17.62,1.41,1.13,3.7,1.53a34.41,34.41,0,0,0,5.43.59,3.6,3.6,0,0,1,.43,1.92,2.94,2.94,0,0,1-.43,1.92q-13.58-.66-15.48-.66-2.06,0-15.62.66A2.88,2.88,0,0,1,0,700.55a3.51,3.51,0,0,1,.43-1.92A34.53,34.53,0,0,0,5.86,698c2.29-.4,3.53-.91,3.7-1.53q.66-2.12.66-9.79V630.23c0-5.12-.22-8.38-.66-9.8-.17-.61-1.41-1.12-3.7-1.52a34.53,34.53,0,0,0-5.43-.59A3.51,3.51,0,0,1,0,616.4a2.86,2.86,0,0,1,.43-1.92q13.56.66,15.62.66c1.49,0,4.3,0,8.4-.13s7.56-.13,10.38-.13a34.21,34.21,0,0,1,13.53,2.68,25.21,25.21,0,0,1,10.49,8.23A20.93,20.93,0,0,1,63,638.69Z" style="fill:#303a3c"></path><path d="M88.29,659.07v27.65q0,7.68.66,9.79c.18.62,1.29,1.13,3.34,1.53a28.08,28.08,0,0,0,5,.59,3.6,3.6,0,0,1,.43,1.92,2.88,2.88,0,0,1-.43,1.92q-13.56-.66-14.16-.66c-1.54,0-3,0-4.47.1s-3.07.16-4.92.29-3.4.22-4.64.27a2.94,2.94,0,0,1-.43-1.92,3.6,3.6,0,0,1,.43-1.92,28.08,28.08,0,0,0,5-.59c2.05-.4,3.16-.91,3.34-1.53q.53-1.65.66-9.79V662.11c0-3.52-.22-5.82-.66-6.88-.26-.66-1.1-1.19-2.51-1.59a19.31,19.31,0,0,0-3.54-.69c-1-.07-1.8-.1-2.55-.1q-.27-.26-.3-1.59a3.57,3.57,0,0,1,.3-1.85,56.3,56.3,0,0,0,18.92-5.56c.31,0,.63.27,1,.8a2.7,2.7,0,0,1,.5,1.32,76.06,76.06,0,0,0-.93,8.73ZM77.51,628.31a6.7,6.7,0,1,1,4.69,1.92A6.4,6.4,0,0,1,77.51,628.31Z" style="fill:#303a3c"></path><path d="M114.69,669.26q-.27,12.11,6,18.75a20.48,20.48,0,0,0,15.58,6.65,16.53,16.53,0,0,0,8.64-2.31,24.25,24.25,0,0,0,5.92-4.7,1.09,1.09,0,0,1,.33.23,2.37,2.37,0,0,1,.49.7,1.94,1.94,0,0,1,.24.92,4.73,4.73,0,0,1-.8,2.38,22.11,22.11,0,0,1-2.64,3.44,33.77,33.77,0,0,1-4,3.58,21.36,21.36,0,0,1-12.71,4.23q-11.56,0-19-7.84t-7.44-19.68a32.26,32.26,0,0,1,2.45-12.37A33.44,33.44,0,0,1,114,653.18a31.64,31.64,0,0,1,8.4-6.58,19.07,19.07,0,0,1,9-2.48,22.51,22.51,0,0,1,8.13,1.39,16.87,16.87,0,0,1,5.76,3.41,18.3,18.3,0,0,1,3.51,4.59,20.82,20.82,0,0,1,1.91,4.7,15.81,15.81,0,0,1,.53,3.9,11.84,11.84,0,0,1-.69,4.6,2.6,2.6,0,0,1-2.48,1.62q-2.72.2-17.17.56T114.69,669.26Zm.66-4.9h21.56c1.9,0,2.91-1,3.05-3a10.49,10.49,0,0,0-.53-3.31,20.21,20.21,0,0,0-1.79-4.1,10.18,10.18,0,0,0-3.44-3.57,9.18,9.18,0,0,0-5.09-1.46,10.62,10.62,0,0,0-5.69,1.59,12.72,12.72,0,0,0-4.07,3.87,29,29,0,0,0-2.45,4.56,24.68,24.68,0,0,0-1.32,3.87C115.34,663.83,115.26,664.36,115.35,664.36Z" style="fill:#303a3c"></path><path d="M199.76,644.25a10.84,10.84,0,0,1,4.86,1.13,7.3,7.3,0,0,1,3.21,2.71,11.35,11.35,0,0,1,.53,3.57,7.68,7.68,0,0,1-1.52,5.06c-1,1.21-2,1.82-2.85,1.82a3.76,3.76,0,0,1-1.62-.36,15.57,15.57,0,0,1-1.92-1.19l-1.35-1a8.72,8.72,0,0,0-4.9-1.59q-3.84,0-7.21,4.53t-3.37,7.38v20.37q0,7.68.66,9.79.27.93,4.66,1.53a55.46,55.46,0,0,0,6.72.59,3.51,3.51,0,0,1,.43,1.92,2.88,2.88,0,0,1-.43,1.92q-13.56-.66-16.41-.66-1.26,0-14.82.66a2.88,2.88,0,0,1-.43-1.92,3.51,3.51,0,0,1,.43-1.92,28.08,28.08,0,0,0,5-.59c2-.4,3.16-.91,3.34-1.53q.53-1.65.66-9.79V662.11c0-3.52-.22-5.82-.66-6.88-.27-.66-1.1-1.19-2.52-1.59a19.07,19.07,0,0,0-3.53-.69c-.95-.07-1.8-.1-2.55-.1q-.27-.26-.3-1.59a3.57,3.57,0,0,1,.3-1.85,56.3,56.3,0,0,0,18.92-5.56c.31,0,.63.27,1,.8a2.67,2.67,0,0,1,.49,1.32q-.12.79-.53,6t-.39,6.18a.44.44,0,0,0,.13.37c.09.06.17.09.23.06a.29.29,0,0,0,.17-.16,33.2,33.2,0,0,1,6.88-9.53Q195.65,644.26,199.76,644.25Z" style="fill:#303a3c"></path><path d="M262.31,651a6.62,6.62,0,0,1-1.52,4.79,4.75,4.75,0,0,1-3.51,1.56,4.83,4.83,0,0,1-2.64-.86,20.84,20.84,0,0,1-2.81-2.22,20.83,20.83,0,0,0-2.22-1.82,17.26,17.26,0,0,0-3.67-2,12.15,12.15,0,0,0-3.87-.5c-3.8,0-7.21,2-10.26,6.12s-4.56,9.41-4.56,16q0,11.12,6,16.73t15.44,5.63a15.78,15.78,0,0,0,8.37-2.19,23.14,23.14,0,0,0,5.66-4.56,1.09,1.09,0,0,1,.33.23,2.38,2.38,0,0,1,.5.7,2.05,2.05,0,0,1,.23.92,4.73,4.73,0,0,1-.8,2.38,21.51,21.51,0,0,1-2.64,3.44,33,33,0,0,1-4,3.58,21.3,21.3,0,0,1-12.7,4.23A26.56,26.56,0,0,1,220.2,689.4a26.92,26.92,0,0,1-3.27-13,29.06,29.06,0,0,1,2-10.71,30.32,30.32,0,0,1,5.36-9,40.22,40.22,0,0,1,7.5-6.72,34.08,34.08,0,0,1,8.64-4.36,27,27,0,0,1,8.63-1.49A21.09,21.09,0,0,1,261,647.29a4.66,4.66,0,0,1,.89,1.63A6,6,0,0,1,262.31,651Z" style="fill:#303a3c"></path><path d="M285.13,669.26q-.25,12.11,6,18.75a20.48,20.48,0,0,0,15.58,6.65,16.5,16.5,0,0,0,8.63-2.31,24.06,24.06,0,0,0,5.92-4.7c.05,0,.16.08.33.23a2.21,2.21,0,0,1,.5.7,1.93,1.93,0,0,1,.23.92,4.7,4.7,0,0,1-.79,2.38,22.21,22.21,0,0,1-2.65,3.44,33,33,0,0,1-4,3.58,20.52,20.52,0,0,1-5.72,3,20.72,20.72,0,0,1-7,1.19q-11.58,0-19-7.84t-7.44-19.68a32.07,32.07,0,0,1,2.45-12.37,33.44,33.44,0,0,1,6.22-10.06,31.64,31.64,0,0,1,8.4-6.58,19,19,0,0,1,9-2.48,22.57,22.57,0,0,1,8.14,1.39,16.87,16.87,0,0,1,5.76,3.41,18,18,0,0,1,3.5,4.59,20.44,20.44,0,0,1,1.92,4.7,16.3,16.3,0,0,1,.53,3.9,11.84,11.84,0,0,1-.69,4.6,2.61,2.61,0,0,1-2.48,1.62q-2.72.2-17.17.56T285.13,669.26Zm.66-4.9h21.57q2.85,0,3-3a10.15,10.15,0,0,0-.52-3.31,20.78,20.78,0,0,0-1.79-4.1,10.18,10.18,0,0,0-3.44-3.57,9.18,9.18,0,0,0-5.09-1.46,10.62,10.62,0,0,0-5.69,1.59,12.72,12.72,0,0,0-4.07,3.87,28.21,28.21,0,0,0-2.45,4.56,24.68,24.68,0,0,0-1.32,3.87C285.78,663.83,285.71,664.36,285.79,664.36Z" style="fill:#303a3c"></path><path d="M407.79,615.27q8.86,0,14,3.87t5.16,11a20.6,20.6,0,0,1-1.55,8,22,22,0,0,1-4.63,6.85,56.43,56.43,0,0,1-6.09,5.42q-3,2.28-7.44,5a172.2,172.2,0,0,0,19.58,26.33,74.48,74.48,0,0,0,5.42-9.63q2.12-4.61,2.12-5.86a1.72,1.72,0,0,0-1.19-1.68,9.14,9.14,0,0,0-2.94-.6l-1.82-.1a3.13,3.13,0,0,1-.3-1.62,2,2,0,0,1,.43-1.42H439c1.37,0,2.78,0,4.24-.1s3.16-.16,5.12-.3,3.7-.22,5.2-.26c.17.13.25.78.23,2s-.15,1.75-.37,1.75a21.94,21.94,0,0,0-4.89.8,17.18,17.18,0,0,0-4.24,1.45,26.82,26.82,0,0,0-1.91,3q-1.72,2.88-5,7.74a104.25,104.25,0,0,1-6.82,9q3,3.16,4.24,4.4t3.14,3a14.79,14.79,0,0,0,3.21,2.35,5.54,5.54,0,0,0,2.38.6q1.85,0,4-2.22a12.89,12.89,0,0,0,2.84-3.87,3.18,3.18,0,0,1,2.05.83,2.22,2.22,0,0,1,1,1.55,16.39,16.39,0,0,1-.72,1.52,21.09,21.09,0,0,1-1.66,2.35,16.28,16.28,0,0,1-2.71,2.78,14.18,14.18,0,0,1-4,2.08,15.33,15.33,0,0,1-5.36.93,11.85,11.85,0,0,1-4.56-1,18.84,18.84,0,0,1-4.2-2.38q-1.83-1.4-3.34-2.78a22.37,22.37,0,0,1-2.32-2.38l-.79-1a42.52,42.52,0,0,1-11.42,7.18,31.86,31.86,0,0,1-12.66,2.75q-11.72,0-18.69-5.69t-7-15.61a20.18,20.18,0,0,1,1.75-8.44,21.46,21.46,0,0,1,5.16-7,52.68,52.68,0,0,1,6.81-5.32,88.1,88.1,0,0,1,8.24-4.67q-2.44-4.23-3.77-6.78a40,40,0,0,1-2.61-7,30.57,30.57,0,0,1-1.29-8.63,17,17,0,0,1,5.59-12.87A19.46,19.46,0,0,1,407.79,615.27Zm13,74.23a113.28,113.28,0,0,1-9.26-11.15q-5.43-7.25-8.93-12.53l-3.51-5.29q-2.91,2-4.26,3c-.91.66-2.09,1.65-3.54,3a16.37,16.37,0,0,0-3.18,3.6,21.42,21.42,0,0,0-1.82,4.07,16,16,0,0,0-.82,5.19q0,8.73,5.42,13.1a20.64,20.64,0,0,0,13.36,4.37,24.69,24.69,0,0,0,16.54-7.28ZM408.45,620a10.48,10.48,0,0,0-7.41,2.84,9.61,9.61,0,0,0-3,7.35q0,8.46,6.87,20.9a47.8,47.8,0,0,0,7.15-4.86,17.19,17.19,0,0,0,4.27-5.82A20,20,0,0,0,418,632a13.64,13.64,0,0,0-2.64-8.34A8.2,8.2,0,0,0,408.45,620Z" style="fill:#303a3c"></path><path d="M518.73,615.14q1.92,0,15.48-.66a3.29,3.29,0,0,1,.43,2.12,4,4,0,0,1-.43,2.11,33.7,33.7,0,0,0-5.43.6c-2.29.4-3.52.9-3.7,1.52q-.8,2.52-.66,9.79V657q3.44-2.12,15-13.36,7.68-7.61,10.72-10.85t6.08-7.15a7.37,7.37,0,0,0,1.86-4.1,2.32,2.32,0,0,0-.2-1,1.8,1.8,0,0,0-.6-.72,5,5,0,0,0-.86-.53,4.4,4.4,0,0,0-1.06-.37c-.39-.08-.76-.15-1.09-.2s-.72-.07-1.16-.09-.78,0-1,0h-1.42a4,4,0,0,1-.33-1.88,6.66,6.66,0,0,1,.33-2.22c1,0,2.59.14,4.73.3s4,.27,5.75.36,3.28.13,4.73.13c2.3,0,5-.12,8.27-.36l6-.43a6.24,6.24,0,0,1,.23,2.35c0,1.17-.18,1.75-.49,1.75l-1.06.07c-.71,0-1.35.1-1.92.16s-1.35.21-2.32.43a16.73,16.73,0,0,0-5.32,2.19,10.32,10.32,0,0,0-2.48,2.05q-4,4.37-8.2,8.63T551.74,639c-1.76,1.72-4.36,4.21-7.77,7.47l-7.84,7.48a.93.93,0,0,0,0,1.06c.57.66,1.81,2.1,3.7,4.33s3.16,3.7,3.77,4.4l3.48,4c1.69,2,2.9,3.36,3.6,4.17s1.81,2.07,3.31,3.77,2.66,3,3.47,3.87l3.15,3.41c1.27,1.39,2.38,2.56,3.3,3.51s1.93,2,3,3,2.13,2.1,3.15,3.07a23.08,23.08,0,0,0,6.12,4.17,24.11,24.11,0,0,0,8.3,1.92,3.56,3.56,0,0,1,.23,2.08,6.82,6.82,0,0,1-.36,1.76q-14.62,0-18.79-1.46a24,24,0,0,1-9-5.69q-3.65-3.57-29.77-33.47c-.18-.27-.57-.4-1.19-.4a2.57,2.57,0,0,0-1.19.27v24.61c0,5.11.22,8.38.66,9.79.18.62,1.41,1.12,3.7,1.52a33.47,33.47,0,0,0,5.43.59,4,4,0,0,1,.43,2.12,3.31,3.31,0,0,1-.43,2.12q-13.56-.66-15.48-.66t-15.61.66a3.25,3.25,0,0,1-.43-2.12,3.94,3.94,0,0,1,.43-2.12,33.26,33.26,0,0,0,5.42-.59c2.29-.4,3.53-.9,3.71-1.52.44-1.41.66-4.68.66-9.79V630.62c0-5.11-.22-8.38-.66-9.79-.18-.62-1.42-1.12-3.71-1.52a33.48,33.48,0,0,0-5.42-.6,3.87,3.87,0,0,1-.43-2.11,3.23,3.23,0,0,1,.43-2.12Q516.68,615.14,518.73,615.14Z" style="fill:#303a3c"></path><path d="M595.9,645.84c1.5,0,2.92,0,4.27-.1s2.86-.17,4.56-.3,3.16-.22,4.4-.26a6.94,6.94,0,0,1,.16,2.11c0,1-.16,1.59-.43,1.72a21.14,21.14,0,0,0-2.24.14,8.57,8.57,0,0,0-2.82.89,2.29,2.29,0,0,0-1.55,2,20.62,20.62,0,0,0,.66,2q1.4,3.65,13.63,32.55,1.59-4,3.64-9.19t3.11-7.78c.7-1.74,1.4-3.51,2.08-5.32s1.17-3.12,1.46-3.94a7.18,7.18,0,0,0,.43-1.55,10.75,10.75,0,0,0-1-3.18,22.36,22.36,0,0,0-2.18-4.1q-1.73-2.52-5.82-2.52c-.35-.17-.53-.77-.53-1.78a2.94,2.94,0,0,1,.53-2.05c1.1,0,2.87.16,5.29.36s4.68.3,6.75.3q.53,0,13.76-.66a5.81,5.81,0,0,1,.26,2.05,2.72,2.72,0,0,1-.39,1.78c-4.41,0-6.62,1.42-6.62,4.24a8.56,8.56,0,0,0,.33,1.45c.22.67.53,1.57.93,2.72s1,2.68,1.72,4.59,1.52,3.89,2.31,5.89,1.88,4.75,3.25,8.24,2.66,6.83,3.9,10.05q9.86-24.54,11.58-29.63a11.06,11.06,0,0,0,.72-3.18,3.54,3.54,0,0,0-.69-2.22,4.17,4.17,0,0,0-2.25-1.32c-1-.29-1.82-.47-2.35-.56s-1.41-.18-2.64-.27c-.27-.22-.41-.82-.43-1.81a3,3,0,0,1,.43-2c1.23,0,2.94.16,5.12.36s4.31.3,6.39.3c1.5,0,2.83,0,4-.1s2.49-.17,4-.3,2.88-.22,4.2-.26A4,4,0,0,1,678,647c0,1.08-.21,1.75-.56,2a15.35,15.35,0,0,0-4.93,1.13,6.4,6.4,0,0,0-4.06,3.64q-11.65,29.43-19.19,47.5A3.41,3.41,0,0,1,648,702.8a2.94,2.94,0,0,1-1.56.73c-.88,0-1.41-.18-1.59-.53l-14.68-38.24L615.88,701a4.49,4.49,0,0,1-1.26,1.49,3.24,3.24,0,0,1-2,1c-.62,0-1-.18-1.19-.53q-11.05-27.66-21.44-51.08c-.83-1.94-3.22-2.91-7.14-2.91a6.93,6.93,0,0,1,0-3.83c1.32,0,2.78.13,4.37.26s3,.23,4.36.3S594.31,645.84,595.9,645.84Z" style="fill:#303a3c"></path><path d="M709.69,644q12.9,0,20.6,8.1T738,672.83q0,12.84-8,21.5A26.17,26.17,0,0,1,710,703q-12.9,0-20.67-8.24t-7.78-20.87q0-12.76,8.07-21.34A26.51,26.51,0,0,1,709.69,644Zm-1.46,4.36a12.38,12.38,0,0,0-8.93,3.44,18.63,18.63,0,0,0-5,8.4,42.2,42.2,0,0,0,.63,23.85,25.94,25.94,0,0,0,6.35,10.36,13.82,13.82,0,0,0,10,4.23,12.36,12.36,0,0,0,8.93-3.44,18.44,18.44,0,0,0,5-8.37,39.31,39.31,0,0,0,1.42-11,39.83,39.83,0,0,0-2.08-12.8,26.26,26.26,0,0,0-6.39-10.45A13.64,13.64,0,0,0,708.23,648.35Z" style="fill:#303a3c"></path><path d="M765.46,686.72q0,7.68.66,9.79c.17.62,1.29,1.13,3.34,1.53a28,28,0,0,0,5,.59,3.42,3.42,0,0,1,.43,1.92,2.88,2.88,0,0,1-.43,1.92q-13.56-.66-14.15-.66c-1.55,0-3,0-4.47.1s-3.08.16-4.93.29-3.4.22-4.63.27a2.88,2.88,0,0,1-.43-1.92,3.51,3.51,0,0,1,.43-1.92,28.18,28.18,0,0,0,5-.59c2.05-.4,3.16-.91,3.34-1.53q.66-2.12.66-9.79V628.24q0-5.29-.66-6.88-1-2.39-8.08-2.38a2.41,2.41,0,0,1-.13-.83,15.6,15.6,0,0,1,0-1.68q0-.87.3-.93a60.6,60.6,0,0,0,18.79-5.29c.3,0,.62.23.95.69a2.36,2.36,0,0,1,.5,1.42,36.61,36.61,0,0,0-1.45,11.51V671q2.37-.86,10.85-8.07l3.83-3.21q2.19-1.82,3.48-2.85c.86-.68,1.69-1.39,2.51-2.11a20.18,20.18,0,0,0,1.79-1.76,1.91,1.91,0,0,0,.56-1.06,1.11,1.11,0,0,0-.27-.72,2.07,2.07,0,0,0-.79-.57c-.35-.15-.71-.28-1.06-.39a8.27,8.27,0,0,0-1.22-.27c-.47-.06-.86-.11-1.19-.13s-.7-.05-1.1-.1l-.72-.06a3.71,3.71,0,0,1-.37-2.19q.11-1.46.63-1.65a124.08,124.08,0,0,0,12.7.66,87.69,87.69,0,0,0,11.65-.66,3.72,3.72,0,0,1,.36,2,3.34,3.34,0,0,1-.36,1.82,21.18,21.18,0,0,0-5.06.86,15.63,15.63,0,0,0-5.13,2.18q-14.62,10.65-21.44,16.41,3.78,4,9.5,10.48T793.94,690c2.4,2.61,4.06,4.3,5,5.1a15.34,15.34,0,0,0,5.79,2.81,21.23,21.23,0,0,0,6.38.76,4.09,4.09,0,0,1,.3,1.49,3.42,3.42,0,0,1-.16,1.69q-1.86.8-8.6.79a25.16,25.16,0,0,1-9.86-1.92,19.06,19.06,0,0,1-6.42-3.9q-11.39-12.3-18.92-20.51a2.08,2.08,0,0,0-.73-.53,3.64,3.64,0,0,0-.92-.53l-.33-.13Z" style="fill:#303a3c"></path><path d="M841.41,675.55c0,2.65.12,4.07.36,4.27a2.6,2.6,0,0,0,1.32.5c.52.06,1.48.09,2.89.09h3.38a18.79,18.79,0,0,0,3.82-.4,8.56,8.56,0,0,0,3.11-1.2c1.62-1.11,2.87-3.1,3.74-6,.05-.23.33-.35.83-.35a2.22,2.22,0,0,1,1.48.35c-.18.52-.48,1.34-.89,2.46s-.75,2-1,2.74-.5,1.5-.77,2.39a17.69,17.69,0,0,0-.54,2.25q-3.06,0-9.58-.12t-10.64-.12c-1,0-2.2,0-3.7.09s-2.62.09-3.35.09a1.27,1.27,0,0,1-.19-.86,1.58,1.58,0,0,1,.19-.86,14.79,14.79,0,0,0,2.43-.26c1-.18,1.58-.41,1.66-.68a19.15,19.15,0,0,0,.3-4.39V650.24a19.09,19.09,0,0,0-.3-4.39c-.08-.28-.63-.5-1.66-.68a15,15,0,0,0-2.43-.27,1.53,1.53,0,0,1-.19-.86,1.29,1.29,0,0,1,.19-.86q6.07.3,7,.3t6.94-.3a1.29,1.29,0,0,1,.19.86,1.53,1.53,0,0,1-.19.86,15,15,0,0,0-2.43.27c-1,.18-1.58.4-1.66.68a16.22,16.22,0,0,0-.3,4.39Z" style="fill:#303a3c"></path><path d="M874.85,675.55c0,2.65.11,4.07.35,4.27a2.67,2.67,0,0,0,1.32.5c.52.06,1.49.09,2.89.09h3.38a18.79,18.79,0,0,0,3.82-.4,8.49,8.49,0,0,0,3.11-1.2c1.62-1.11,2.87-3.1,3.74-6,.06-.23.33-.35.83-.35a2.22,2.22,0,0,1,1.48.35c-.18.52-.47,1.34-.89,2.46s-.75,2-1,2.74-.51,1.5-.77,2.39a18,18,0,0,0-.55,2.25q-3.06,0-9.57-.12t-10.64-.12c-1,0-2.21,0-3.71.09s-2.62.09-3.35.09a1.27,1.27,0,0,1-.19-.86,1.58,1.58,0,0,1,.19-.86,14.79,14.79,0,0,0,2.43-.26c1-.18,1.58-.41,1.66-.68a19.15,19.15,0,0,0,.3-4.39V650.24a19.09,19.09,0,0,0-.3-4.39c-.08-.28-.63-.5-1.66-.68a15,15,0,0,0-2.43-.27,1.53,1.53,0,0,1-.19-.86,1.29,1.29,0,0,1,.19-.86q6.08.3,7,.3t6.93-.3a1.29,1.29,0,0,1,.19.86,1.45,1.45,0,0,1-.19.86,15,15,0,0,0-2.43.27c-1,.18-1.58.4-1.66.68a16.79,16.79,0,0,0-.29,4.39Z" style="fill:#303a3c"></path><path d="M926.74,654a11.13,11.13,0,0,1-3.6,8.66A13.54,13.54,0,0,1,913.7,666a5.74,5.74,0,0,1-2.55-.48,1.59,1.59,0,0,1-.83-1.3.39.39,0,0,1,0-.14.51.51,0,0,1,.09-.13.18.18,0,0,1,.18,0,9.42,9.42,0,0,0,2.25.42,8,8,0,0,0,6-2.46,9.39,9.39,0,0,0,2.37-6.79,10,10,0,0,0-2.49-7.16q-2.49-2.62-7.29-2.62c-1.8,0-2.79.2-3,.59a18.44,18.44,0,0,0-.29,4.45v25.25a20,20,0,0,0,.29,4.39c.08.27.64.5,1.66.68a14.79,14.79,0,0,0,2.44.26,1.68,1.68,0,0,1,.19.86,1.33,1.33,0,0,1-.19.86q-6.09-.29-6.94-.29c-.61,0-3,.1-7,.29a1.33,1.33,0,0,1-.19-.86,1.68,1.68,0,0,1,.19-.86,14.79,14.79,0,0,0,2.44-.26c1-.18,1.58-.41,1.65-.68a19.15,19.15,0,0,0,.3-4.39V650.24a19.09,19.09,0,0,0-.3-4.39c-.07-.28-.63-.5-1.65-.68a15,15,0,0,0-2.44-.27,1.62,1.62,0,0,1-.19-.86,1.35,1.35,0,0,1,.19-.86c4,.2,6.39.3,7,.3s1.93,0,3.76-.06,3.39-.06,4.66-.06a15.38,15.38,0,0,1,6.06,1.2,11.37,11.37,0,0,1,4.7,3.69A9.4,9.4,0,0,1,926.74,654Z" style="fill:#303a3c"></path></svg> 